<svg width="60" height="60" viewBox="0 0 60 60" fill="none" xmlns="http://www.w3.org/2000/svg">
<path d="M32.6512 5.625C31.948 4.92198 30.9944 4.52705 30 4.52705C29.0056 4.52705 28.052 4.92198 27.3487 5.625L2.42249 30.5475C2.24816 30.7218 2.10987 30.9288 2.01553 31.1566C1.92118 31.3843 1.87262 31.6285 1.87262 31.875C1.87262 32.1215 1.92118 32.3657 2.01553 32.5934C2.10987 32.8212 2.24816 33.0282 2.42249 33.2025C2.77456 33.5546 3.25208 33.7524 3.74999 33.7524C3.99653 33.7524 4.24065 33.7038 4.46843 33.6095C4.6962 33.5151 4.90316 33.3768 5.07749 33.2025L30 8.27625L54.9225 33.2025C55.2746 33.5546 55.7521 33.7524 56.25 33.7524C56.7479 33.7524 57.2254 33.5546 57.5775 33.2025C57.9296 32.8504 58.1274 32.3729 58.1274 31.875C58.1274 31.3771 57.9296 30.8996 57.5775 30.5475L48.75 21.7238V9.375C48.75 8.87772 48.5524 8.40081 48.2008 8.04917C47.8492 7.69754 47.3723 7.5 46.875 7.5H43.125C42.6277 7.5 42.1508 7.69754 41.7992 8.04917C41.4475 8.40081 41.25 8.87772 41.25 9.375V14.2237L32.6512 5.625Z" fill="white"/>
<path d="M30 12.3488L52.5 34.8488V50.625C52.5 52.1168 51.9074 53.5476 50.8525 54.6025C49.7976 55.6574 48.3668 56.25 46.875 56.25H13.125C11.6332 56.25 10.2024 55.6574 9.14752 54.6025C8.09263 53.5476 7.5 52.1168 7.5 50.625V34.8488L30 12.3488Z" fill="white"/>
</svg>
