<svg width="58" height="53" viewBox="0 0 58 53" fill="none" xmlns="http://www.w3.org/2000/svg">
<path d="M31.6512 1.625C30.948 0.921983 29.9944 0.52705 29 0.52705C28.0056 0.52705 27.052 0.921983 26.3487 1.625L1.42249 26.5475C1.24816 26.7218 1.10987 26.9288 1.01553 27.1566C0.921179 27.3843 0.87262 27.6285 0.87262 27.875C0.87262 28.1215 0.921179 28.3657 1.01553 28.5934C1.10987 28.8212 1.24816 29.0282 1.42249 29.2025C1.77456 29.5546 2.25208 29.7524 2.74999 29.7524C2.99653 29.7524 3.24065 29.7038 3.46843 29.6095C3.6962 29.5151 3.90316 29.3768 4.07749 29.2025L29 4.27625L53.9225 29.2025C54.2746 29.5546 54.7521 29.7524 55.25 29.7524C55.7479 29.7524 56.2254 29.5546 56.5775 29.2025C56.9296 28.8504 57.1274 28.3729 57.1274 27.875C57.1274 27.3771 56.9296 26.8996 56.5775 26.5475L47.75 17.7238V5.375C47.75 4.87772 47.5524 4.40081 47.2008 4.04917C46.8492 3.69754 46.3723 3.5 45.875 3.5H42.125C41.6277 3.5 41.1508 3.69754 40.7992 4.04917C40.4475 4.40081 40.25 4.87772 40.25 5.375V10.2237L31.6512 1.625Z" fill="white"/>
<path d="M29 8.34875L51.5 30.8488V46.625C51.5 48.1168 50.9074 49.5476 49.8525 50.6025C48.7976 51.6574 47.3668 52.25 45.875 52.25H12.125C10.6332 52.25 9.20242 51.6574 8.14752 50.6025C7.09263 49.5476 6.5 48.1168 6.5 46.625V30.8488L29 8.34875Z" fill="white"/>
</svg>
