<svg width="38" height="38" viewBox="0 0 38 38" fill="none" xmlns="http://www.w3.org/2000/svg">
<path d="M27.8883 24.5651C30.1879 21.4267 31.2179 17.5356 30.7722 13.6702C30.3265 9.80491 28.4379 6.25042 25.4844 3.71792C22.5308 1.18541 18.7301 -0.138356 14.8426 0.0114584C10.955 0.161273 7.26742 1.77362 4.51747 4.52592C1.76753 7.27823 0.158046 10.9675 0.0110351 14.8557C-0.135976 18.7439 1.19032 22.5442 3.72459 25.4963C6.25885 28.4485 9.81418 30.3348 13.6793 30.7778C17.5444 31.2208 21.4342 30.1879 24.5706 27.8857H24.5682C24.6379 27.9807 24.7155 28.0718 24.801 28.1589L33.9444 37.3036C34.3897 37.7493 34.9938 37.9998 35.6238 38C36.2538 38.0002 36.858 37.7501 37.3037 37.3048C37.7493 36.8594 37.9998 36.2552 38 35.6251C38.0002 34.995 37.7502 34.3907 37.3049 33.945L28.1614 24.8003C28.0766 24.7143 27.9853 24.6372 27.8883 24.5651ZM28.5011 15.4347C28.5011 17.1503 28.1632 18.849 27.5068 20.434C26.8503 22.019 25.8882 23.4591 24.6753 24.6722C23.4624 25.8853 22.0224 26.8476 20.4377 27.5041C18.8529 28.1606 17.1544 28.4985 15.4391 28.4985C13.7237 28.4985 12.0252 28.1606 10.4404 27.5041C8.85568 26.8476 7.41574 25.8853 6.20282 24.6722C4.9899 23.4591 4.02776 22.019 3.37133 20.434C2.7149 18.849 2.37704 17.1503 2.37704 15.4347C2.37704 11.9699 3.75322 8.6471 6.20282 6.19716C8.65242 3.74721 11.9748 2.37084 15.4391 2.37084C18.9033 2.37084 22.2257 3.74721 24.6753 6.19716C27.1249 8.6471 28.5011 11.9699 28.5011 15.4347Z" fill="black"/>
</svg>
