<svg width="31" height="31" viewBox="0 0 31 31" fill="none" xmlns="http://www.w3.org/2000/svg">
<path d="M31 15.5C31 19.6109 29.367 23.5533 26.4602 26.4602C23.5533 29.367 19.6109 31 15.5 31C11.3891 31 7.44666 29.367 4.53984 26.4602C1.63303 23.5533 0 19.6109 0 15.5C0 11.3891 1.63303 7.44666 4.53984 4.53984C7.44666 1.63303 11.3891 0 15.5 0C19.6109 0 23.5533 1.63303 26.4602 4.53984C29.367 7.44666 31 11.3891 31 15.5ZM16.4688 8.71875C16.4688 8.46182 16.3667 8.21542 16.185 8.03374C16.0033 7.85206 15.7569 7.75 15.5 7.75C15.2431 7.75 14.9967 7.85206 14.815 8.03374C14.6333 8.21542 14.5312 8.46182 14.5312 8.71875V14.5312H8.71875C8.46182 14.5312 8.21542 14.6333 8.03374 14.815C7.85206 14.9967 7.75 15.2431 7.75 15.5C7.75 15.7569 7.85206 16.0033 8.03374 16.185C8.21542 16.3667 8.46182 16.4688 8.71875 16.4688H14.5312V22.2812C14.5312 22.5382 14.6333 22.7846 14.815 22.9663C14.9967 23.1479 15.2431 23.25 15.5 23.25C15.7569 23.25 16.0033 23.1479 16.185 22.9663C16.3667 22.7846 16.4688 22.5382 16.4688 22.2812V16.4688H22.2812C22.5382 16.4688 22.7846 16.3667 22.9663 16.185C23.1479 16.0033 23.25 15.7569 23.25 15.5C23.25 15.2431 23.1479 14.9967 22.9663 14.815C22.7846 14.6333 22.5382 14.5312 22.2812 14.5312H16.4688V8.71875Z" fill="white"/>
</svg>
