<svg width="27" height="30" viewBox="0 0 27 30" fill="none" xmlns="http://www.w3.org/2000/svg">
<path fill-rule="evenodd" clip-rule="evenodd" d="M13.5023 5.29391C15.9337 5.29481 18.2995 6.0553 20.2451 7.46147C22.1907 8.86763 23.6115 10.8438 24.2947 13.0939C24.9779 15.3441 24.8867 17.7471 24.0348 19.9431C23.1829 22.1391 21.6161 24.0098 19.5691 25.2751C17.522 26.5404 15.105 27.1321 12.68 26.9616C10.255 26.7911 7.95252 25.8677 6.11746 24.3295C4.28239 22.7913 3.01351 20.7213 2.50086 18.4293C1.98822 16.1374 2.2594 13.7471 3.2738 11.6162C3.38422 11.3572 3.38644 11.067 3.28 10.8064C3.17356 10.5458 2.96672 10.3349 2.70276 10.2181C2.4388 10.1012 2.13819 10.0872 1.86383 10.1792C1.58947 10.2712 1.36264 10.4619 1.2308 10.7115C0.0135784 13.2686 -0.311716 16.1372 0.303649 18.8875C0.919013 21.6379 2.44191 24.122 4.64422 25.9677C6.84654 27.8134 9.60971 28.9213 12.5199 29.1256C15.43 29.3299 18.3304 28.6195 20.7867 27.1008C23.243 25.5821 25.123 23.3369 26.1449 20.7015C27.1669 18.0661 27.2758 15.1823 26.4555 12.4822C25.6351 9.78203 23.9296 7.41086 21.5945 5.72383C19.2593 4.03681 16.4201 3.12475 13.5023 3.12427V5.29391Z" fill="white"/>
<path d="M13.6347 9.07324V0.542207C13.6347 0.439142 13.6042 0.33822 13.5468 0.251261C13.4894 0.164301 13.4075 0.0949036 13.3108 0.051194C13.214 0.00748446 13.1062 -0.00872756 13.0002 0.00445629C12.8942 0.0176401 12.7943 0.0596742 12.7122 0.125636L7.4022 4.39115C7.33889 4.44206 7.28797 4.50576 7.25302 4.57774C7.21807 4.64973 7.19995 4.72824 7.19995 4.80772C7.19995 4.88721 7.21807 4.96572 7.25302 5.0377C7.28797 5.10969 7.33889 5.17339 7.4022 5.22429L12.7122 9.48981C12.7943 9.55577 12.8942 9.59781 13.0002 9.61099C13.1062 9.62417 13.214 9.60796 13.3108 9.56425C13.4075 9.52054 13.4894 9.45115 13.5468 9.36419C13.6042 9.27723 13.6347 9.1763 13.6347 9.07324Z" fill="white"/>
</svg>
