<svg width="38" height="20" viewBox="0 0 38 20" fill="none" xmlns="http://www.w3.org/2000/svg">
<path d="M19 1.35398C16.6606 0.0612468 13.2691 -0.131061 10.1816 0.0673518C6.58588 0.300868 2.95688 1.09299 0.695875 1.75386C0.488416 1.8145 0.312491 1.91221 0.1891 2.03535C0.0657084 2.15849 6.31071e-05 2.30185 0 2.44831L0 19.2371C5.50097e-05 19.3648 0.0499632 19.4904 0.145153 19.6025C0.240343 19.7146 0.377772 19.8095 0.544851 19.8786C0.71193 19.9477 0.903318 19.9887 1.10149 19.998C1.29965 20.0072 1.49826 19.9844 1.67913 19.9315C3.77388 19.321 7.14875 18.5869 10.4191 18.3748C13.7655 18.158 16.5704 18.5075 18.0737 19.7133C18.185 19.8024 18.326 19.8743 18.4863 19.9238C18.6466 19.9732 18.8222 19.9989 19 19.9989C19.1778 19.9989 19.3534 19.9732 19.5137 19.9238C19.674 19.8743 19.815 19.8024 19.9263 19.7133C21.4296 18.5075 24.2345 18.158 27.5785 18.3748C30.8513 18.5869 34.2285 19.321 36.3209 19.9315C36.5017 19.9844 36.7003 20.0072 36.8985 19.998C37.0967 19.9887 37.2881 19.9477 37.4551 19.8786C37.6222 19.8095 37.7597 19.7146 37.8548 19.6025C37.95 19.4904 37.9999 19.3648 38 19.2371V2.44831C37.9999 2.30185 37.9343 2.15849 37.8109 2.03535C37.6875 1.91221 37.5116 1.8145 37.3041 1.75386C35.0431 1.09299 31.4141 0.300868 27.8184 0.0673518C24.7309 -0.132587 21.3394 0.0612468 19 1.35398Z" fill="white"/>
</svg>
