<svg width="37" height="45" viewBox="0 0 37 45" fill="none" xmlns="http://www.w3.org/2000/svg">
<path fill-rule="evenodd" clip-rule="evenodd" d="M35.3183 44.1282C34.8723 44.1282 34.4446 43.9634 34.1292 43.6702C33.8138 43.3769 33.6366 42.9791 33.6366 42.5644V1.90566C33.6366 1.49091 33.8138 1.09315 34.1292 0.799883C34.4446 0.506615 34.8723 0.341858 35.3183 0.341858C35.7643 0.341858 36.1921 0.506615 36.5074 0.799883C36.8228 1.09315 37 1.49091 37 1.90566V42.5644C37 42.9791 36.8228 43.3769 36.5074 43.6702C36.1921 43.9634 35.7643 44.1282 35.3183 44.1282ZM26.9099 22.235C26.9099 22.6498 26.7327 23.0475 26.4174 23.3408C26.102 23.6341 25.6742 23.7988 25.2282 23.7988H5.74427L12.9654 30.5106C13.1218 30.656 13.2458 30.8286 13.3304 31.0186C13.415 31.2086 13.4586 31.4122 13.4586 31.6178C13.4586 31.8234 13.415 32.027 13.3304 32.217C13.2458 32.407 13.1218 32.5796 12.9654 32.725C12.8091 32.8704 12.6234 32.9857 12.4191 33.0644C12.2149 33.1431 11.9959 33.1836 11.7748 33.1836C11.5537 33.1836 11.3347 33.1431 11.1304 33.0644C10.9261 32.9857 10.7405 32.8704 10.5841 32.725L0.494057 23.3422C0.337448 23.1969 0.213196 23.0244 0.128418 22.8344C0.0436392 22.6444 0 22.4407 0 22.235C0 22.0293 0.0436392 21.8257 0.128418 21.6357C0.213196 21.4457 0.337448 21.2731 0.494057 21.1278L10.5841 11.7451C10.8999 11.4514 11.3282 11.2865 11.7748 11.2865C12.2213 11.2865 12.6496 11.4514 12.9654 11.7451C13.2812 12.0387 13.4586 12.437 13.4586 12.8522C13.4586 13.2675 13.2812 13.6658 12.9654 13.9594L5.74427 20.6712H25.2282C25.6742 20.6712 26.102 20.836 26.4174 21.1292C26.7327 21.4225 26.9099 21.8203 26.9099 22.235Z" fill="white"/>
</svg>
