<svg width="46" height="61" viewBox="0 0 46 61" fill="none" xmlns="http://www.w3.org/2000/svg">
<path d="M38.3333 0H7.66667C5.63334 0 3.68329 0.803346 2.24551 2.23331C0.807735 3.66328 0 5.60272 0 7.625V53.375C0 55.3973 0.807735 57.3367 2.24551 58.7667C3.68329 60.1967 5.63334 61 7.66667 61H38.3333C40.3667 61 42.3167 60.1967 43.7545 58.7667C45.1923 57.3367 46 55.3973 46 53.375V7.625C46 5.60272 45.1923 3.66328 43.7545 2.23331C42.3167 0.803346 40.3667 0 38.3333 0ZM30.6667 43.8438V20.9688C30.6667 20.4632 30.8686 19.9783 31.228 19.6208C31.5875 19.2633 32.075 19.0625 32.5833 19.0625H36.4167C36.925 19.0625 37.4125 19.2633 37.772 19.6208C38.1314 19.9783 38.3333 20.4632 38.3333 20.9688V43.8438C38.3333 44.3493 38.1314 44.8342 37.772 45.1917C37.4125 45.5492 36.925 45.75 36.4167 45.75H32.5833C32.075 45.75 31.5875 45.5492 31.228 45.1917C30.8686 44.8342 30.6667 44.3493 30.6667 43.8438ZM21.0833 45.75C20.575 45.75 20.0875 45.5492 19.728 45.1917C19.3686 44.8342 19.1667 44.3493 19.1667 43.8438V28.5938C19.1667 28.0882 19.3686 27.6033 19.728 27.2458C20.0875 26.8883 20.575 26.6875 21.0833 26.6875H24.9167C25.425 26.6875 25.9125 26.8883 26.272 27.2458C26.6314 27.6033 26.8333 28.0882 26.8333 28.5938V43.8438C26.8333 44.3493 26.6314 44.8342 26.272 45.1917C25.9125 45.5492 25.425 45.75 24.9167 45.75H21.0833ZM9.58333 45.75C9.075 45.75 8.58749 45.5492 8.22805 45.1917C7.8686 44.8342 7.66667 44.3493 7.66667 43.8438V36.2188C7.66667 35.7132 7.8686 35.2283 8.22805 34.8708C8.58749 34.5133 9.075 34.3125 9.58333 34.3125H13.4167C13.925 34.3125 14.4125 34.5133 14.772 34.8708C15.1314 35.2283 15.3333 35.7132 15.3333 36.2188V43.8438C15.3333 44.3493 15.1314 44.8342 14.772 45.1917C14.4125 45.5492 13.925 45.75 13.4167 45.75H9.58333Z" fill="white"/>
</svg>
